<?xml version="1.0" standalone="no"?>
<!DOCTYPE svg PUBLIC "-//W3C//DTD SVG 20010904//EN"
 "http://www.w3.org/TR/2001/REC-SVG-20010904/DTD/svg10.dtd">
<svg version="1.0" xmlns="http://www.w3.org/2000/svg"
 width="300.000000pt" height="300.000000pt" viewBox="0 0 300.000000 300.000000"
 preserveAspectRatio="xMidYMid meet">
<metadata>
Created by potrace 1.14, written by Peter Selinger 2001-2017
</metadata>
<g transform="translate(0.000000,300.000000) scale(0.100000,-0.100000)"
fill="#000000" stroke="none">
<path d="M1235 2209 c-27 -3 -58 -9 -67 -13 -24 -11 -36 -60 -34 -134 2 -40
-2 -62 -9 -62 -17 0 -109 -103 -138 -153 -26 -48 -53 -122 -62 -172 -2 -16 -7
-40 -9 -52 -3 -14 0 -23 7 -23 8 0 7 -3 -2 -9 -10 -7 -12 -30 -7 -107 3 -55 8
-112 11 -129 22 -118 43 -215 86 -385 l49 -195 84 -82 c56 -54 86 -92 91 -112
4 -17 10 -29 14 -26 5 2 39 6 77 9 l69 5 -45 -16 c-145 -51 -236 -174 -200
-269 10 -25 6 -31 -44 -81 -57 -57 -106 -140 -106 -180 0 -22 3 -23 86 -23
l86 0 40 45 c22 25 43 45 46 45 4 0 20 -20 35 -45 l29 -45 296 0 297 0 39 61
c26 40 44 58 53 54 30 -11 71 -51 87 -82 l16 -33 94 0 93 0 -3 33 c-10 81 -98
206 -176 246 -24 13 -26 18 -23 66 8 142 -115 238 -318 249 -76 4 -87 9 -87
42 0 13 -5 24 -11 24 -24 0 42 41 147 91 104 51 127 66 119 79 -2 3 -7 49 -10
101 -3 52 -8 112 -11 134 -3 22 -7 157 -9 300 -5 338 -8 371 -42 475 -33 102
-110 199 -197 249 -51 29 -137 48 -208 46 l-58 -2 0 41 0 42 -62 -1 c-35 0
-85 -3 -113 -6z"/>
</g>
</svg>
